<svg width="210" height="48" viewBox="0 0 210 48" fill="none" xmlns="http://www.w3.org/2000/svg">
<path d="M24.9665 31.0895L4.34017 19.5037C3.89934 19.2526 3.40076 19.1206 2.89345 19.1206C2.38614 19.1206 1.88756 19.2526 1.44673 19.5037C1.00828 19.7418 0.64235 20.094 0.387675 20.523C0.133 20.9521 -0.000948478 21.442 5.05554e-06 21.9409V45.1185C0.000335264 45.6171 0.134821 46.1065 0.389361 46.5354C0.643902 46.9642 1.00912 47.3166 1.44673 47.5557C1.88851 47.8039 2.38672 47.9343 2.89345 47.9343C3.40019 47.9343 3.8984 47.8039 4.34017 47.5557L24.9665 35.9639C25.4051 35.7257 25.7713 35.3736 26.0265 34.9446C26.2817 34.5157 26.4164 34.0258 26.4164 33.5267C26.4164 33.0276 26.2817 32.5377 26.0265 32.1087C25.7713 31.6798 25.4051 31.3276 24.9665 31.0895Z" fill="white"/>
<path d="M4.2021 8.31421C3.37101 8.31421 2.55857 8.56066 1.86754 9.02239C1.17651 9.48412 0.637915 10.1404 0.319868 10.9082C0.00182074 11.6761 -0.0813949 12.521 0.0807441 13.3361C0.242883 14.1512 0.643094 14.9 1.23077 15.4876C1.81844 16.0753 2.56719 16.4755 3.38231 16.6377C4.19744 16.7998 5.04234 16.7166 5.81018 16.3985C6.57801 16.0805 7.23429 15.5419 7.69602 14.8509C8.15775 14.1598 8.4042 13.3474 8.4042 12.5163C8.4042 11.4018 7.96148 10.333 7.17344 9.54498C6.38539 8.75693 5.31657 8.31421 4.2021 8.31421Z" fill="white"/>
<path d="M40.9405 19.5757C40.4178 19.2767 39.8259 19.1194 39.2237 19.1194C38.6214 19.1194 38.0296 19.2767 37.5068 19.5757L18.0091 30.6153C17.4846 30.9038 17.0473 31.3279 16.7427 31.8432C16.438 32.3585 16.2773 32.9461 16.2773 33.5447C16.2773 34.1433 16.438 34.7309 16.7427 35.2462C17.0473 35.7615 17.4846 36.1856 18.0091 36.4742L37.5068 47.4777C38.0296 47.7767 38.6214 47.934 39.2237 47.934C39.8259 47.934 40.4178 47.7767 40.9405 47.4777C41.4657 47.1902 41.9035 46.7663 42.2078 46.2507C42.5121 45.7351 42.6716 45.1469 42.6694 44.5482V22.5052C42.6716 21.9065 42.5121 21.3183 42.2078 20.8027C41.9035 20.2871 41.4657 19.8632 40.9405 19.5757ZM39.938 45.7368C39.721 45.8628 39.4746 45.9292 39.2237 45.9292C38.9728 45.9292 38.7263 45.8628 38.5093 45.7368L18.9936 34.7153C18.7786 34.5977 18.5997 34.4239 18.476 34.2124C18.3522 34.0009 18.2884 33.7597 18.2912 33.5147C18.2903 33.2701 18.355 33.0297 18.4785 32.8185C18.602 32.6074 18.7799 32.4332 18.9936 32.3141L38.5093 21.3226C38.7275 21.1943 38.9766 21.1279 39.2297 21.1305C39.4779 21.1302 39.722 21.1943 39.938 21.3166C40.153 21.4342 40.3319 21.6081 40.4556 21.8195C40.5794 22.031 40.6432 22.2722 40.6404 22.5172V44.5482C40.6391 44.7908 40.5735 45.0287 40.4501 45.2376C40.3266 45.4464 40.1499 45.6187 39.938 45.7368Z" fill="white"/>
<path d="M38.4668 8.31421C37.6357 8.31421 36.8232 8.56066 36.1322 9.02239C35.4412 9.48412 34.9026 10.1404 34.5845 10.9082C34.2665 11.6761 34.1833 12.521 34.3454 13.3361C34.5075 14.1512 34.9077 14.9 35.4954 15.4876C36.0831 16.0753 36.8318 16.4755 37.647 16.6377C38.4621 16.7998 39.307 16.7166 40.0748 16.3985C40.8427 16.0805 41.4989 15.5419 41.9607 14.8509C42.4224 14.1598 42.6689 13.3474 42.6689 12.5163C42.6689 11.4018 42.2261 10.333 41.4381 9.54498C40.65 8.75693 39.5812 8.31421 38.4668 8.31421ZM38.4668 14.9175C37.9918 14.9175 37.5276 14.7767 37.1327 14.5128C36.7378 14.249 36.4301 13.874 36.2483 13.4352C36.0666 12.9964 36.019 12.5136 36.1117 12.0479C36.2043 11.5821 36.433 11.1542 36.7688 10.8184C37.1047 10.4826 37.5325 10.2539 37.9983 10.1612C38.4641 10.0686 38.9469 10.1161 39.3856 10.2979C39.8244 10.4796 40.1994 10.7874 40.4633 11.1823C40.7271 11.5772 40.868 12.0414 40.868 12.5163C40.8632 13.15 40.6081 13.7562 40.1583 14.2026C39.7085 14.649 39.1005 14.8995 38.4668 14.8995V14.9175Z" fill="white"/>
<path d="M65.7934 45.6648C61.7901 43.3215 58.875 39.4911 57.6831 35.0082C56.4913 30.5252 57.1192 25.7529 59.4302 21.7308C60.9658 19.0736 63.1752 16.8684 65.8355 15.338C68.4958 13.8076 71.5127 13.0061 74.5817 13.0145C78.3842 13.0029 82.086 14.2367 85.1212 16.5272C88.1564 18.8177 90.3582 22.039 91.3902 25.6988H82.0315C81.2861 24.4434 80.2215 23.4078 78.9459 22.6973C77.6307 21.9656 76.1467 21.591 74.6418 21.6108C73.487 21.5876 72.3398 21.8027 71.2718 22.2427C70.2038 22.6827 69.238 23.3381 68.4347 24.1681C67.6097 25.0002 66.9619 25.991 66.5307 27.0806C66.0994 28.1702 65.8935 29.3359 65.9254 30.5072C65.8924 31.6787 66.0978 32.8447 66.5292 33.9344C66.9605 35.0242 67.6088 36.0149 68.4347 36.8464C69.2425 37.6779 70.2137 38.3333 71.2871 38.7713C72.3604 39.2093 73.5128 39.4206 74.6718 39.3917C76.0782 39.4067 77.4663 39.0726 78.7118 38.4192C79.9334 37.7623 80.9793 36.8214 81.7613 35.6758H91.3181C90.2283 39.2631 88.0095 42.4027 84.9919 44.6276C81.9742 46.8525 78.3189 48.0437 74.5697 48.024C71.4859 48.0373 68.4549 47.2225 65.7934 45.6648Z" fill="white"/>
<path d="M95.1172 29.6307C95.1172 24.252 96.4499 20.206 99.1152 17.4926C101.781 14.7793 105.284 13.4226 109.626 13.4226H110.029V22.0309H109.692C107.748 22.0309 106.301 22.6432 105.352 23.8678C104.404 25.0924 103.93 27.0134 103.93 29.6307V47.4596H95.1172V29.6307Z" fill="white"/>
<path d="M143.934 13.5608V31.3897C143.934 36.9045 142.577 41.0525 139.864 43.8339C137.15 46.6153 133.534 48.012 129.016 48.024C124.498 48.024 120.882 46.6233 118.169 43.8219C115.455 41.0205 114.099 36.8724 114.099 31.3777V13.5608H122.911V31.3897C122.911 34.1471 123.397 36.1701 124.37 37.4587C125.342 38.7474 126.891 39.3917 129.016 39.3917C131.141 39.3917 132.684 38.7494 133.662 37.4587C134.641 36.1681 135.115 34.1451 135.115 31.3897V13.5608H143.934Z" fill="white"/>
<path d="M154.644 46.6793C152.542 45.8838 150.702 44.523 149.325 42.7473C147.966 40.9433 147.259 38.7319 147.32 36.4742H155.724C155.724 37.5628 156.324 38.4452 157.525 39.1215C158.932 39.8449 160.501 40.1943 162.081 40.136C163.506 40.2148 164.925 39.8991 166.181 39.2236C166.612 38.9999 166.975 38.6646 167.231 38.2527C167.488 37.8408 167.629 37.3676 167.64 36.8824C167.641 36.4013 167.481 35.9337 167.187 35.5533C166.892 35.1729 166.479 34.9013 166.013 34.7814C164.311 34.2296 162.563 33.8278 160.791 33.5808C158.543 33.2251 156.322 32.7136 154.145 32.05C152.393 31.494 150.817 30.4904 149.571 29.1385C148.306 27.7458 147.674 25.7849 147.674 23.2556C147.662 21.3411 148.32 19.4827 149.535 18.003C150.877 16.3681 152.618 15.1069 154.59 14.3411C156.851 13.4315 159.272 12.9805 161.709 13.0145C165.771 13.0145 169.093 13.999 171.674 15.968C174.255 17.9369 175.544 20.6603 175.54 24.138H167.136C167.136 23.1896 166.584 22.3892 165.479 21.7368C164.284 21.0839 162.938 20.7568 161.577 20.7884C160.318 20.7479 159.073 21.0531 157.975 21.6708C157.551 21.8754 157.191 22.1922 156.934 22.5869C156.677 22.9816 156.532 23.4391 156.517 23.9099C156.517 24.7203 157.039 25.3326 158.077 25.7408C159.684 26.2864 161.341 26.6725 163.024 26.8934C165.294 27.2531 167.538 27.7624 169.741 28.4182C171.541 28.9789 173.172 29.9819 174.484 31.3356C175.82 32.7283 176.489 34.6453 176.489 37.0865C176.533 40.6883 175.21 43.4117 172.521 45.2566C169.831 47.1015 166.291 48.024 161.901 48.024C159.418 48.0434 156.955 47.587 154.644 46.6793Z" fill="white"/>
<path d="M205.627 17.1866C208.34 19.964 209.697 24.1121 209.697 29.6308V47.4597H200.885V29.6308C200.885 26.8694 200.398 24.8464 199.426 23.5618C198.453 22.2771 196.905 21.6268 194.78 21.6108C192.655 21.6108 191.108 22.2551 190.139 23.5438C189.161 24.8284 188.681 26.8514 188.681 29.6128V47.4417H179.868V0H188.681V14.7134C190.494 13.5412 192.621 12.9486 194.78 13.0145C199.302 13.0145 202.918 14.4052 205.627 17.1866Z" fill="white"/>
</svg>
