<svg width="140" height="32" viewBox="0 0 140 32" fill="none" xmlns="http://www.w3.org/2000/svg">
<g clip-path="url(#clip0_268_8)">
<path d="M16.6443 20.7264L2.89345 13.0025C2.59956 12.8351 2.26717 12.7471 1.92897 12.7471C1.59076 12.7471 1.25838 12.8351 0.964486 13.0025C0.672184 13.1612 0.428233 13.396 0.25845 13.6821C0.0886668 13.9681 -0.000632319 14.2947 3.37036e-06 14.6273V30.079C0.000223509 30.4115 0.0898805 30.7378 0.259574 31.0236C0.429268 31.3095 0.672748 31.5445 0.964486 31.7039C1.259 31.8693 1.59115 31.9563 1.92897 31.9563C2.26679 31.9563 2.59893 31.8693 2.89345 31.7039L16.6443 23.976C16.9367 23.8172 17.1809 23.5824 17.351 23.2965C17.5211 23.0105 17.6109 22.6839 17.6109 22.3512C17.6109 22.0184 17.5211 21.6919 17.351 21.4059C17.1809 21.1199 16.9367 20.8852 16.6443 20.7264Z" fill="#4F2B83"/>
<path d="M2.8014 5.54279C2.24734 5.54279 1.70571 5.70708 1.24503 6.01491C0.784339 6.32273 0.425277 6.76025 0.213245 7.27214C0.00121382 7.78403 -0.0542633 8.34729 0.0538294 8.89071C0.161922 9.43413 0.42873 9.93329 0.820512 10.3251C1.2123 10.7169 1.71146 10.9837 2.25488 11.0918C2.79829 11.1999 3.36156 11.1444 3.87345 10.9323C4.38534 10.7203 4.82286 10.3612 5.13068 9.90056C5.4385 9.43987 5.6028 8.89825 5.6028 8.34419C5.6028 7.60121 5.30766 6.88866 4.78229 6.3633C4.25693 5.83793 3.54438 5.54279 2.8014 5.54279Z" fill="#4F2B83"/>
<path d="M27.2937 13.0505C26.9452 12.8511 26.5506 12.7463 26.1491 12.7463C25.7476 12.7463 25.3531 12.8511 25.0045 13.0505L12.006 20.4102C11.6564 20.6026 11.3648 20.8853 11.1618 21.2288C10.9587 21.5724 10.8516 21.9641 10.8516 22.3632C10.8516 22.7622 10.9587 23.154 11.1618 23.4975C11.3648 23.841 11.6564 24.1238 12.006 24.3161L25.0045 31.6518C25.3531 31.8512 25.7476 31.956 26.1491 31.956C26.5506 31.956 26.9452 31.8512 27.2937 31.6518C27.6438 31.4602 27.9357 31.1776 28.1386 30.8338C28.3414 30.4901 28.4477 30.098 28.4463 29.6988V15.0035C28.4477 14.6044 28.3414 14.2122 28.1386 13.8685C27.9357 13.5248 27.6438 13.2421 27.2937 13.0505ZM26.6254 30.4912C26.4807 30.5752 26.3164 30.6195 26.1491 30.6195C25.9818 30.6195 25.8175 30.5752 25.6729 30.4912L12.6624 23.1436C12.5191 23.0652 12.3998 22.9493 12.3173 22.8083C12.2348 22.6673 12.1922 22.5065 12.1941 22.3432C12.1935 22.1801 12.2367 22.0198 12.319 21.879C12.4013 21.7383 12.5199 21.6222 12.6624 21.5428L25.6729 14.2151C25.8183 14.1296 25.9844 14.0853 26.1531 14.087C26.3186 14.0868 26.4813 14.1296 26.6254 14.2111C26.7687 14.2895 26.8879 14.4054 26.9704 14.5464C27.0529 14.6874 27.0955 14.8482 27.0936 15.0115V29.6988C27.0928 29.8606 27.049 30.0192 26.9667 30.1584C26.8844 30.2976 26.7666 30.4125 26.6254 30.4912Z" fill="#4F2B83"/>
<path d="M25.6452 5.54279C25.0911 5.54279 24.5495 5.70708 24.0888 6.01491C23.6281 6.32273 23.269 6.76025 23.057 7.27214C22.845 7.78403 22.7895 8.34729 22.8976 8.89071C23.0057 9.43413 23.2725 9.93329 23.6643 10.3251C24.056 10.7169 24.5552 10.9837 25.0986 11.0918C25.642 11.1999 26.2053 11.1444 26.7172 10.9323C27.2291 10.7203 27.6666 10.3612 27.9744 9.90056C28.2823 9.43987 28.4466 8.89825 28.4466 8.34419C28.4466 7.60121 28.1514 6.88866 27.626 6.3633C27.1007 5.83793 26.3881 5.54279 25.6452 5.54279ZM25.6452 9.94499C25.3285 9.94499 25.019 9.8511 24.7558 9.6752C24.4925 9.49931 24.2874 9.24929 24.1662 8.95679C24.045 8.66428 24.0133 8.34241 24.0751 8.03189C24.1369 7.72136 24.2893 7.43613 24.5132 7.21225C24.7371 6.98837 25.0223 6.83591 25.3328 6.77414C25.6434 6.71238 25.9652 6.74408 26.2578 6.86524C26.5503 6.9864 26.8003 7.19158 26.9762 7.45483C27.1521 7.71808 27.246 8.02758 27.246 8.34419C27.2428 8.76666 27.0727 9.17075 26.7729 9.46837C26.473 9.76599 26.0676 9.93299 25.6452 9.93298V9.94499Z" fill="#4F2B83"/>
<path d="M43.8619 30.4432C41.193 28.881 39.2497 26.3274 38.4551 23.3388C37.6605 20.3501 38.0791 17.1686 39.6198 14.4872C40.6435 12.7157 42.1165 11.2456 43.89 10.2253C45.6635 9.20508 47.6748 8.67076 49.7208 8.67632C52.2558 8.66861 54.7236 9.4911 56.7471 11.0181C58.7706 12.5451 60.2385 14.6927 60.9264 17.1326H54.6873C54.1904 16.2956 53.4807 15.6052 52.6303 15.1316C51.7535 14.6437 50.7642 14.394 49.7609 14.4072C48.991 14.3917 48.2262 14.5352 47.5142 14.8285C46.8022 15.1218 46.1584 15.5588 45.6228 16.112C45.0728 16.6668 44.641 17.3274 44.3534 18.0537C44.0659 18.7801 43.9287 19.5572 43.95 20.3382C43.928 21.1192 44.0649 21.8965 44.3525 22.623C44.64 23.3494 45.0722 24.0099 45.6228 24.5643C46.1614 25.1186 46.8088 25.5555 47.5244 25.8475C48.24 26.1396 49.0082 26.2804 49.7809 26.2611C50.7185 26.2712 51.6439 26.0484 52.4742 25.6128C53.2886 25.1748 53.9859 24.5476 54.5072 23.7839H60.8784C60.1519 26.1754 58.6727 28.2685 56.6609 29.7517C54.6491 31.235 52.2123 32.0291 49.7128 32.016C47.6569 32.0248 45.6363 31.4817 43.8619 30.4432Z" fill="#4F2B83"/>
<path d="M63.4121 19.7539C63.4121 16.1681 64.3006 13.4707 66.0774 11.6618C67.8543 9.85294 70.1902 8.94849 73.0849 8.94849H73.3531V14.6874H73.129C71.8323 14.6874 70.8678 15.0956 70.2355 15.912C69.6032 16.7284 69.287 18.009 69.287 19.7539V31.6398H63.4121V19.7539Z" fill="#4F2B83"/>
<path d="M95.9563 9.04053V20.9265C95.9563 24.603 95.0519 27.3684 93.243 29.2226C91.4341 31.0769 89.0235 32.008 86.0114 32.016C82.9992 32.016 80.5887 31.0822 78.7798 29.2146C76.9709 27.347 76.0664 24.5816 76.0664 20.9185V9.04053H81.9413V20.9265C81.9413 22.7647 82.2655 24.1134 82.9138 24.9725C83.5621 25.8316 84.5947 26.2611 86.0114 26.2611C87.4281 26.2611 88.4566 25.8329 89.1089 24.9725C89.7613 24.1121 90.0774 22.7634 90.0774 20.9265V9.04053H95.9563Z" fill="#4F2B83"/>
<path d="M103.096 31.1196C101.695 30.5892 100.468 29.6821 99.55 28.4983C98.6442 27.2956 98.173 25.8213 98.2133 24.3162H103.816C103.816 25.0419 104.216 25.6302 105.017 26.0811C105.954 26.5633 107 26.7962 108.054 26.7574C109.004 26.8099 109.95 26.5994 110.788 26.1491C111.075 26 111.316 25.7764 111.488 25.5018C111.659 25.2273 111.753 24.9118 111.76 24.5883C111.76 24.2676 111.654 23.9558 111.458 23.7022C111.261 23.4486 110.986 23.2676 110.676 23.1876C109.541 22.8198 108.376 22.5519 107.194 22.3872C105.695 22.1501 104.215 21.8091 102.764 21.3667C101.596 20.996 100.544 20.327 99.7141 19.4257C98.871 18.4973 98.4494 17.19 98.4494 15.5038C98.4412 14.2274 98.8801 12.9885 99.6901 12.002C100.585 10.9121 101.745 10.0713 103.06 9.5608C104.568 8.95435 106.181 8.65371 107.806 8.67636C110.514 8.67636 112.729 9.33269 114.449 10.6453C116.17 11.958 117.029 13.7736 117.027 16.0921H111.424C111.424 15.4598 111.056 14.9262 110.319 14.4913C109.523 14.056 108.626 13.8379 107.718 13.859C106.879 13.832 106.048 14.0354 105.317 14.4472C105.034 14.5836 104.794 14.7948 104.622 15.058C104.451 15.3211 104.355 15.6261 104.344 15.94C104.344 16.4803 104.693 16.8885 105.385 17.1606C106.456 17.5243 107.561 17.7817 108.683 17.929C110.196 18.1688 111.692 18.5083 113.161 18.9455C114.361 19.3193 115.448 19.988 116.322 20.8905C117.213 21.8189 117.659 23.0969 117.659 24.7244C117.688 27.1256 116.807 28.9412 115.014 30.1711C113.221 31.4011 110.861 32.016 107.934 32.016C106.279 32.029 104.637 31.7247 103.096 31.1196Z" fill="#4F2B83"/>
<path d="M137.085 11.4577C138.894 13.3093 139.798 16.0747 139.798 19.7539V31.6398H133.923V19.7539C133.923 17.913 133.599 16.5643 132.951 15.7079C132.302 14.8514 131.27 14.4179 129.853 14.4072C128.436 14.4072 127.405 14.8368 126.76 15.6958C126.107 16.5523 125.787 17.901 125.787 19.7419V31.6278H119.912V0H125.787V9.80891C126.996 9.02744 128.414 8.63242 129.853 8.67634C132.868 8.67634 135.278 9.60347 137.085 11.4577Z" fill="#4F2B83"/>
</g>
<defs>
<clipPath id="clip0_268_8">
<rect width="139.798" height="32" fill="white"/>
</clipPath>
</defs>
</svg>
